<?xml version="1.0" encoding="UTF-8" standalone="no"?>
<!-- Created with Inkscape (http://www.inkscape.org/) -->

<svg
   xmlns:dc="http://purl.org/dc/elements/1.1/"
   xmlns:cc="http://creativecommons.org/ns#"
   xmlns:rdf="http://www.w3.org/1999/02/22-rdf-syntax-ns#"
   xmlns:svg="http://www.w3.org/2000/svg"
   xmlns="http://www.w3.org/2000/svg"
   xmlns:sodipodi="http://sodipodi.sourceforge.net/DTD/sodipodi-0.dtd"
   xmlns:inkscape="http://www.inkscape.org/namespaces/inkscape"
   width="350"
   height="75"
   viewBox="0 0 350 75.000003"
   id="svg4356"
   version="1.1"
   inkscape:version="0.91 r13725"
   sodipodi:docname="mopia_logo_simple_svg.svg">
  <defs
     id="defs4358" />
  <sodipodi:namedview
     id="base"
     pagecolor="#ffffff"
     bordercolor="#666666"
     borderopacity="1.0"
     inkscape:pageopacity="0.0"
     inkscape:pageshadow="2"
     inkscape:zoom="1.5700148"
     inkscape:cx="236.4301"
     inkscape:cy="-76.807906"
     inkscape:document-units="px"
     inkscape:current-layer="g4364"
     showgrid="false"
     units="px"
     inkscape:window-width="1366"
     inkscape:window-height="705"
     inkscape:window-x="-8"
     inkscape:window-y="-8"
     inkscape:window-maximized="1"
     showguides="true"
     inkscape:guide-bbox="true" />
  <metadata
     id="metadata4361">
    <rdf:RDF>
      <cc:Work
         rdf:about="">
        <dc:format>image/svg+xml</dc:format>
        <dc:type
           rdf:resource="http://purl.org/dc/dcmitype/StillImage" />
        <dc:title />
      </cc:Work>
    </rdf:RDF>
  </metadata>
  <g
     inkscape:label="Calque 1"
     inkscape:groupmode="layer"
     id="layer1"
     transform="translate(0,-977.3621)">
    <g
       transform="matrix(1.0007571,0,0,1,-5.5070581,966.50675)"
       style="fill:none;fill-rule:evenodd"
       id="g4364">
      <path
         style="font-style:normal;font-weight:normal;font-size:22.5px;line-height:125%;font-family:sans-serif;letter-spacing:0px;word-spacing:0px;fill:#7d97ad;fill-opacity:1;stroke:none;stroke-width:1px;stroke-linecap:butt;stroke-linejoin:miter;stroke-opacity:1"
         d="m 218.42763,31.35535 c -7.95092,0 -14.53393,6.093872 -14.53393,13.722656 l 0,6.513672 c 0,7.628785 6.54592,13.763672 14.49685,13.763672 7.95091,0 14.44999,-6.134887 14.44999,-13.763672 l 0,-6.513672 c 0,-7.628784 -6.42058,-13.722656 -14.41291,-13.722656 z m -60.63379,0.455078 c -0.70398,0 -2.40443,-6.84e-4 -2.40443,1.699219 l 0.08,30.351562 c 0,1.119439 0.58325,1.160601 1.37006,1.119141 l 2.44346,0 c 1.44939,0 1.65304,-0.209036 1.65304,-1.660156 l 0,-21.765625 8.49163,10.576172 c 0.45551,0.538987 0.53639,0.660156 1.3232,0.660156 l 1.61597,0 c 0.62117,0 0.8705,8.19e-4 1.2432,-0.621094 l -0.039,0.08008 c 2.9816,-3.524165 5.71038,-7.046766 8.56773,-10.695312 l 0,21.765625 c 0,1.451129 0.2095,1.660156 1.6589,1.660156 l 2.44151,0 c 0.7868,0 1.45203,0.0031 1.45203,-1.199219 l 0,-30.224609 c 0,-1.824275 -1.49661,-1.746094 -2.28343,-1.746094 l -1.61011,0 c -0.7454,0 -1.28466,0.212333 -1.61596,0.626953 L 171.58223,45.828006 161.02187,32.556522 c -0.49695,-0.663372 -0.95211,-0.746094 -1.73892,-0.746094 l -1.48911,0 z m 92.55688,0 c -0.78681,0 -1.36616,0.66475 -1.36616,1.328125 l 0.082,30.513672 c 0,0.663372 0.49738,1.328125 1.28419,1.328125 l 2.81623,0 c 1.28373,0 1.71324,-0.883099 1.32907,-1.617188 l 0,-9.24414 10.84726,-6.013672 c 0.78677,-0.456068 1.77863,-1.120621 3.22802,-2.074219 5.46623,-3.64855 4.68087,-14.220703 -4.30534,-14.220703 l -13.91524,0 z m 38.44941,0 c -0.78684,0 -1.32908,0.66475 -1.32908,1.328125 l 0.082,30.513672 c 0,0.663372 0.46027,1.328125 1.24711,1.328125 l 2.81037,0 c 0.78681,0 1.372,-0.664753 1.372,-1.328125 l 0,-30.513672 c 0,-0.663375 -0.58519,-1.328125 -1.372,-1.328125 l -2.81037,0 z m 30.88287,0 c -0.8282,0 -1.03722,0.46012 -1.32713,1.082031 -1.07665,2.612031 -10.56036,30.593924 -10.56036,30.759766 0,0.787756 0.70748,1.328125 1.37006,1.328125 l 2.8533,0 c 0.99391,0 1.08017,-0.4128 1.37006,-1.076172 l 2.27758,-6.388672 10.18759,-4.515625 3.76668,10.904297 c 0.28987,0.621914 0.4575,1.076172 1.32712,1.076172 l 2.98212,0 c 0.86965,0 1.32322,-0.457448 1.32322,-1.328125 0,-0.165847 0.003,-0.207808 -0.039,-0.498047 l -10.6033,-30.261719 c -0.28988,-0.538992 -0.45597,-1.082031 -1.28419,-1.082031 l -3.64372,0 z m -101.29245,4.810547 c 4.84507,0 8.85852,3.813425 8.85852,8.457031 l 0,6.513672 c 0,4.643609 -4.01345,8.457031 -8.85852,8.457031 -4.88651,0 -8.90733,-3.813422 -8.90733,-8.457031 l 0,-6.513672 c 0,-4.602148 4.02082,-8.457031 8.90733,-8.457031 z m 36.10547,0.707031 9.48305,0 c 0.86965,0 1.44599,0.453101 1.65305,1.365235 0.20701,0.870683 0.0427,1.785571 -0.49572,2.65625 -0.45551,0.663369 -2.94263,2.279367 -3.93648,2.818359 -2.11197,1.285285 -4.59194,2.612982 -6.7039,3.732422 l 0,-10.572266 z m 67.01177,3.273438 c 0.45552,1.285284 0.70152,2.159067 0.99143,2.988281 0.12418,0.456071 0.28757,0.829087 0.4118,1.285156 0.12445,0.456068 0.45741,1.286538 0.95435,2.613281 l -5.71832,2.523438 3.36074,-9.410156 z"
         id="path4342"
         inkscape:connector-curvature="0" />
      <path
         style="fill:#02b3e4;fill-opacity:1"
         inkscape:connector-curvature="0"
         id="path4344"
         d="m 60.740351,10.946436 -22.8483,9.11126 c -0.54704,0.218686 -0.916873,0.785093 -0.916873,1.426936 0,0.64164 0.369618,1.219176 0.916873,1.437503 l 7.872531,3.847448 c 2.646215,0.985357 0.94542,0.349115 2.63472,0.983003 -1.067638,2.196429 -1.728368,4.634798 -1.728368,7.240381 0,9.166642 7.416848,16.605322 16.55661,16.605322 9.139709,0 16.55661,-7.43868 16.55661,-16.605322 0,-3.179253 -0.929826,-6.1298 -2.476619,-8.656749 l 4.426324,-2.304239 0.01063,5.57034 -0.369081,0 c -0.257926,-0.02489 -0.486713,0.180702 -0.516389,0.465089 l -0.484557,4.597905 c -0.01617,0.140057 0.02697,0.280926 0.105215,0.391113 0.08039,0.109646 0.199637,0.17838 0.326449,0.190258 l 3.815127,0 c 0.128947,-0.01525 0.236865,-0.09087 0.316206,-0.20083 0.08146,-0.109815 0.119797,-0.239904 0.105214,-0.380502 -0.02697,-0.242459 -0.04858,-0.486196 -0.07393,-0.729322 l 5.627887,2.748175 c 0.728177,0.271125 0.0993,0.02976 0.727154,0.264254 -0.924534,1.861677 -1.496504,3.93198 -1.496504,6.151685 0,7.674258 6.217441,13.910001 13.86918,13.910001 7.65178,0 13.85864,-6.235743 13.85864,-13.910001 0,-2.546836 -0.73546,-4.901918 -1.9286,-6.954993 l 3.07734,-1.596059 0.0106,4.354806 -0.29517,0 c -0.20127,-0.01935 -0.37716,0.137153 -0.40037,0.359395 l -0.37933,3.593766 c -0.0106,0.109476 0.0215,0.220404 0.0842,0.306525 0.0626,0.08569 0.15379,0.138702 0.25307,0.147967 l 2.98249,0 c 0.10034,-0.01185 0.19099,-0.06203 0.25306,-0.147967 0.0637,-0.08584 0.0956,-0.19667 0.0842,-0.306525 -0.0751,-0.705965 -0.15755,-1.408164 -0.23203,-2.113981 l -0.15811,-1.479785 c -0.0215,-0.220282 -0.19911,-0.379256 -0.40037,-0.359395 l -0.28437,0 0.0106,-4.967859 0.13706,-0.05304 0.51639,-0.20083 c 0.42735,-0.170638 0.70611,-0.618995 0.70611,-1.120414 0,-0.501561 -0.27843,-0.949497 -0.70611,-1.120405 l -17.85263,-7.124091 c -0.23742,-0.09476 -0.50074,-0.09476 -0.73767,0 l -17.599968,7.028985 -0.137059,-1.278956 c -0.03238,-0.281957 -0.259002,-0.490469 -0.516388,-0.46509 l -0.36908,0 0.01062,-6.352518 0.189931,-0.07396 0.642868,-0.253706 c 0.547037,-0.218371 0.916926,-0.795864 0.916926,-1.4375 0,-0.641846 -0.369618,-1.208231 -0.916926,-1.426939 L 61.67892,10.946311 c -0.303792,-0.121281 -0.634881,-0.121281 -0.93797,0 z m -5.806919,19.237225 c 1.275162,0.490792 5.375842,2.06904 8.757837,3.255531 l 4.394705,-2.293668 c 1.318921,0.339862 2.697362,0.528515 4.120696,0.528515 1.291458,0 2.528149,-0.161588 3.720267,-0.443927 0.3475,1.179051 0.548012,2.450988 0.548012,3.762881 0,7.323355 -5.945597,13.286369 -13.247405,13.286369 -7.301913,0 -13.2474,-5.963014 -13.2474,-13.286369 0,-0.481596 0.03235,-0.972532 0.08418,-1.437509 1.8331,-0.817988 3.462613,-1.984257 4.868951,-3.371796 z m 2.497712,1.733468 c -1.374283,0 -2.487135,1.105604 -2.487135,2.483923 0,1.378316 1.112852,2.494498 2.487135,2.494498 1.374285,0 2.476672,-1.116182 2.476672,-2.494498 0,-1.378319 -1.102387,-2.483923 -2.476672,-2.483923 z m 11.5928,0 c -1.374338,0 -2.487193,1.105604 -2.487193,2.483923 0,1.378316 1.112908,2.494498 2.487193,2.494498 1.374232,0 2.476672,-1.116182 2.476672,-2.494498 0,-1.378319 -1.10244,-2.483923 -2.476672,-2.483923 z m 27.822686,7.092403 c 1.490026,0.573094 4.76039,1.834425 7.75663,2.885581 l 4.16283,-2.16683 c 0.75371,0.334017 1.54852,0.581345 2.44505,0.581345 1.08124,0 2.12146,-0.123049 3.11954,-0.359398 0.29084,0.987095 0.46352,2.051524 0.46352,3.149832 0,6.131067 -4.98437,11.11954 -11.09746,11.11954 -6.113028,0 -11.086929,-4.988473 -11.086929,-11.11954 0,-0.403179 0.02149,-0.815699 0.06311,-1.204968 1.570911,-0.700969 2.977841,-1.68841 4.173415,-2.885581 z m 2.00237,1.522069 c -1.150571,0 -2.086654,0.928341 -2.086654,2.082267 0,1.153918 0.936083,2.082273 2.086654,2.082273 1.150464,0 2.07619,-0.928355 2.07619,-2.082273 0,-1.153926 -0.925726,-2.082267 -2.07619,-2.082267 z m 9.68529,0 c -1.15063,0 -2.07619,0.928341 -2.07619,2.082267 0,1.153918 0.92556,2.082273 2.07619,2.082273 1.15046,0 2.0867,-0.928355 2.0867,-2.082273 0,-1.153926 -0.93624,-2.082267 -2.0867,-2.082267 z m -48.626474,0.306521 0,0.792745 6.607892,0 0,-0.792745 -6.607892,0 z m 36.706949,7.198111 c 1.108971,2.83614 3.841835,4.862152 7.071615,4.862152 3.22984,0 5.97323,-2.026012 7.08214,-4.862152 l -14.153755,0 z m -33.355598,6.976134 c -12.572485,0 -37.771406,4.704027 -37.771406,17.313506 l 0,13.529477 37.771406,0 0,-12.17653 c 0,-4.600019 1.77601,-11.039632 12.783675,-17.154957 -4.694444,-0.974124 -9.222372,-1.511496 -12.783675,-1.511496 z m 40.469363,3.784026 c -9.874527,0 -29.677535,4.978852 -29.677535,14.882427 l 0,12.17653 59.355055,0 0,-12.17653 c 0,-9.903575 -19.803,-14.882427 -29.67752,-14.882427 z" />
      <g
         id="g4166"
         transform="translate(6.3645447,-5.7324304)"
         inkscape:export-filename="C:\Users\Abderrahim Globres\Desktop\mopia.png"
         inkscape:export-xdpi="523.95673"
         inkscape:export-ydpi="523.95673">
        <ellipse
           ry="86.445625"
           rx="86.380226"
           cy="201.55948"
           cx="160.10133"
           id="path3344"
           style="fill:#f9f9f9;fill-opacity:1;stroke:#02b3e4;stroke-width:2.99886489;stroke-miterlimit:4;stroke-dasharray:none;stroke-opacity:1" />
        <g
           transform="translate(0.12779236,0)"
           id="g4160">
          <ellipse
             ry="84.549713"
             rx="84.485748"
             cy="201.55948"
             cx="159.97354"
             id="ellipse4154"
             style="fill:none;fill-opacity:1;stroke:#7d97ad;stroke-width:0.98053634;stroke-miterlimit:4;stroke-dasharray:none;stroke-opacity:1" />
          <g
             id="g4156"
             transform="translate(-0.12779374,7.8417138)">
            <path
               style="fill:#02b3e4;fill-opacity:1"
               inkscape:connector-curvature="0"
               id="path3346"
               d="m 141.39478,144.15057 -22.8483,9.11126 c -0.54704,0.21868 -0.91688,0.78509 -0.91688,1.42693 0,0.64164 0.36962,1.21918 0.91688,1.43751 l 7.87253,3.84744 c 2.64621,0.98536 0.94542,0.34912 2.63472,0.98301 -1.06764,2.19643 -1.72837,4.63479 -1.72837,7.24038 0,9.16664 7.41685,16.60532 16.55661,16.60532 9.13971,0 16.55661,-7.43868 16.55661,-16.60532 0,-3.17926 -0.92983,-6.1298 -2.47662,-8.65675 l 4.42632,-2.30424 0.0106,5.57034 -0.36908,0 c -0.25792,-0.0249 -0.48671,0.1807 -0.51639,0.46509 l -0.48455,4.5979 c -0.0162,0.14006 0.027,0.28093 0.10521,0.39112 0.0804,0.10964 0.19964,0.17838 0.32645,0.19025 l 3.81513,0 c 0.12895,-0.0152 0.23686,-0.0909 0.3162,-0.20083 0.0815,-0.10981 0.1198,-0.2399 0.10522,-0.3805 -0.027,-0.24246 -0.0486,-0.48619 -0.0739,-0.72932 l 5.62789,2.74818 c 0.72817,0.27112 0.0993,0.0298 0.72715,0.26425 -0.92453,1.86168 -1.4965,3.93198 -1.4965,6.15168 0,7.67426 6.21744,13.91001 13.86918,13.91001 7.65178,0 13.85864,-6.23575 13.85864,-13.91001 0,-2.54683 -0.73546,-4.90191 -1.9286,-6.95499 l 3.07734,-1.59606 0.0106,4.35481 -0.29517,0 c -0.20127,-0.0194 -0.37716,0.13715 -0.40037,0.35939 l -0.37933,3.59377 c -0.0106,0.10948 0.0215,0.2204 0.0842,0.30652 0.0626,0.0857 0.15379,0.13871 0.25307,0.14797 l 2.98249,0 c 0.10034,-0.0119 0.19099,-0.062 0.25306,-0.14797 0.0637,-0.0858 0.0956,-0.19667 0.0842,-0.30652 -0.0751,-0.70597 -0.15755,-1.40816 -0.23203,-2.11398 l -0.15811,-1.47979 c -0.0215,-0.22028 -0.19911,-0.37925 -0.40037,-0.35939 l -0.28437,0 0.0106,-4.96786 0.13706,-0.053 0.51639,-0.20083 c 0.42735,-0.17064 0.70611,-0.619 0.70611,-1.12041 0,-0.50157 -0.27843,-0.9495 -0.70611,-1.12041 l -17.85263,-7.12409 c -0.23742,-0.0948 -0.50074,-0.0948 -0.73767,0 l -17.59997,7.02898 -0.13706,-1.27895 c -0.0324,-0.28196 -0.259,-0.49047 -0.51639,-0.46509 l -0.36908,0 0.0106,-6.35252 0.18993,-0.074 0.64287,-0.25371 c 0.54704,-0.21837 0.91693,-0.79586 0.91693,-1.4375 0,-0.64184 -0.36962,-1.20823 -0.91693,-1.42693 l -22.83746,-9.11127 c -0.3038,-0.12128 -0.63489,-0.12128 -0.93797,0 z m -5.80692,19.23722 c 1.27516,0.49079 5.37584,2.06904 8.75783,3.25553 l 4.39471,-2.29367 c 1.31892,0.33987 2.69736,0.52852 4.1207,0.52852 1.29145,0 2.52814,-0.16159 3.72026,-0.44393 0.3475,1.17905 0.54801,2.45099 0.54801,3.76288 0,7.32336 -5.94559,13.28637 -13.2474,13.28637 -7.30191,0 -13.2474,-5.96301 -13.2474,-13.28637 0,-0.48159 0.0323,-0.97253 0.0842,-1.43751 1.8331,-0.81798 3.46261,-1.98425 4.86895,-3.37179 z m 2.49771,1.73347 c -1.37428,0 -2.48714,1.1056 -2.48714,2.48392 0,1.37832 1.11286,2.4945 2.48714,2.4945 1.37428,0 2.47667,-1.11618 2.47667,-2.4945 0,-1.37832 -1.10239,-2.48392 -2.47667,-2.48392 z m 11.5928,0 c -1.37434,0 -2.48719,1.1056 -2.48719,2.48392 0,1.37832 1.1129,2.4945 2.48719,2.4945 1.37423,0 2.47667,-1.11618 2.47667,-2.4945 0,-1.37832 -1.10244,-2.48392 -2.47667,-2.48392 z m 27.82269,7.0924 c 1.49002,0.5731 4.76039,1.83443 7.75663,2.88558 l 4.16283,-2.16683 c 0.75371,0.33402 1.54852,0.58135 2.44505,0.58135 1.08124,0 2.12146,-0.12305 3.11954,-0.3594 0.29084,0.9871 0.46352,2.05152 0.46352,3.14983 0,6.13107 -4.98437,11.11954 -11.09746,11.11954 -6.11303,0 -11.08693,-4.98847 -11.08693,-11.11954 0,-0.40318 0.0215,-0.8157 0.0631,-1.20497 1.57091,-0.70096 2.97784,-1.68841 4.17341,-2.88558 z m 2.00237,1.52207 c -1.15058,0 -2.08666,0.92834 -2.08666,2.08227 0,1.15392 0.93608,2.08227 2.08666,2.08227 1.15046,0 2.07619,-0.92835 2.07619,-2.08227 0,-1.15393 -0.92573,-2.08227 -2.07619,-2.08227 z m 9.68529,0 c -1.15063,0 -2.07619,0.92834 -2.07619,2.08227 0,1.15392 0.92556,2.08227 2.07619,2.08227 1.15046,0 2.0867,-0.92835 2.0867,-2.08227 0,-1.15393 -0.93624,-2.08227 -2.0867,-2.08227 z m -48.62648,0.30652 0,0.79275 6.60789,0 0,-0.79275 -6.60789,0 z m 36.70695,7.19811 c 1.10897,2.83614 3.84184,4.86216 7.07162,4.86216 3.22984,0 5.97323,-2.02602 7.08214,-4.86216 l -14.15376,0 z m -33.3556,6.97614 c -12.57248,0 -37.7714,4.70402 -37.7714,17.3135 l 0,13.52948 37.7714,0 0,-12.17653 c 0,-4.60002 1.77601,-11.03963 12.78368,-17.15496 -4.69445,-0.97412 -9.22237,-1.51149 -12.78368,-1.51149 z m 40.46937,3.78402 c -9.87453,0 -29.67754,4.97886 -29.67754,14.88243 l 0,12.17653 59.35506,0 0,-12.17653 c 0,-9.90357 -19.803,-14.88243 -29.67752,-14.88243 z" />
            <path
               style="font-style:normal;font-weight:normal;font-size:22.5px;line-height:125%;font-family:sans-serif;letter-spacing:0px;word-spacing:0px;fill:#7d97ad;fill-opacity:1;stroke:none;stroke-width:1px;stroke-linecap:butt;stroke-linejoin:miter;stroke-opacity:1"
               d="m 144.14261,223.05592 c -4.75187,0 -8.68621,3.64203 -8.68621,8.20137 l 0,3.89288 c 0,4.55935 3.91218,8.22588 8.66405,8.22588 4.75187,0 8.63604,-3.66653 8.63604,-8.22588 l 0,-3.89288 c 0,-4.55934 -3.83727,-8.20137 -8.61388,-8.20137 z m -36.23779,0.272 c -0.42073,0 -1.43701,-4.1e-4 -1.43701,1.01554 l 0.0478,18.13961 c 0,0.66903 0.34858,0.69363 0.81882,0.66885 l 1.46034,0 c 0.86623,0 0.98794,-0.12493 0.98794,-0.9922 l 0,-13.00822 5.07501,6.32085 c 0.27224,0.32212 0.32058,0.39455 0.79081,0.39455 l 0.96578,0 c 0.37125,0 0.52027,4.7e-4 0.74302,-0.37121 l -0.0233,0.0479 c 1.78195,-2.10621 3.41281,-4.2115 5.1205,-6.39204 l 0,13.00823 c 0,0.86726 0.12522,0.99219 0.99145,0.99219 l 1.45916,0 c 0.47024,0 0.86781,0.002 0.86781,-0.7167 l 0,-18.06376 c 0,-1.09027 -0.89446,-1.04355 -1.3647,-1.04355 l -0.96227,0 c -0.44548,0 -0.76778,0.12691 -0.96577,0.37469 l -6.33474,8.00291 -6.31142,-7.9317 c -0.29699,-0.39646 -0.56901,-0.4459 -1.03925,-0.4459 l -0.88997,0 z m 55.31663,0 c -0.47024,0 -0.81648,0.39728 -0.81648,0.79375 l 0.0489,18.2365 c 0,0.39645 0.29726,0.79375 0.76749,0.79375 l 1.68312,0 c 0.76722,0 1.02392,-0.52778 0.79432,-0.9665 l 0,-5.52478 6.48288,-3.59407 c 0.47021,-0.27256 1.06298,-0.66973 1.92921,-1.23965 3.2669,-2.18056 2.79751,-8.499 -2.57308,-8.499 l -8.31645,0 z m 22.97929,0 c -0.47026,0 -0.79433,0.39728 -0.79433,0.79375 l 0.0489,18.2365 c 0,0.39645 0.27508,0.79375 0.74533,0.79375 l 1.67962,0 c 0.47023,0 0.81998,-0.3973 0.81998,-0.79375 l 0,-18.2365 c 0,-0.39647 -0.34975,-0.79375 -0.81998,-0.79375 l -1.67962,0 z m 18.45715,0 c -0.49499,0 -0.6199,0.27498 -0.79316,0.64666 -0.64345,1.56109 -6.3114,18.28447 -6.3114,18.38359 0,0.4708 0.42282,0.79375 0.81882,0.79375 l 1.70527,0 c 0.59401,0 0.64557,-0.24672 0.81881,-0.64318 l 1.3612,-3.81818 6.08861,-2.69877 2.25116,6.51695 c 0.17325,0.3717 0.27342,0.64318 0.79316,0.64318 l 1.78226,0 c 0.51975,0 0.79082,-0.27339 0.79082,-0.79375 0,-0.0991 0.002,-0.12419 -0.0233,-0.29767 l -6.33707,-18.08592 c -0.17324,-0.32212 -0.27251,-0.64666 -0.7675,-0.64666 l -2.17766,0 z m -60.53744,2.87502 c 2.89567,0 5.2943,2.2791 5.2943,5.05435 l 0,3.89288 c 0,2.77526 -2.39863,5.05435 -5.2943,5.05435 -2.92042,0 -5.32345,-2.27909 -5.32345,-5.05435 l 0,-3.89288 c 0,-2.75048 2.40303,-5.05435 5.32345,-5.05435 z m 21.57843,0.42255 5.66755,0 c 0.51976,0 0.8642,0.2708 0.98795,0.81595 0.12373,0.52036 0.0256,1.06714 -0.29626,1.58749 -0.27224,0.39646 -1.75867,1.36227 -2.35264,1.68439 -1.26223,0.76816 -2.74437,1.56166 -4.0066,2.23069 l 0,-6.31852 z m 40.0496,1.95638 c 0.27224,0.76814 0.41925,1.29035 0.59253,1.78594 0.0743,0.27258 0.17186,0.49551 0.24611,0.76807 0.0745,0.27258 0.27336,0.7689 0.57036,1.56185 l -3.41755,1.50812 2.00855,-5.62398 z"
               id="path4148"
               inkscape:connector-curvature="0" />
          </g>
        </g>
      </g>
    </g>
  </g>
</svg>
